<svg xmlns="http://www.w3.org/2000/svg" width="600" height="400" viewBox="0 0 600 400"><rect width="100%" height="100%" fill="#ADD8E6"/><path fill="#FFFFFF" d="M160.515 213.86h37.72l-14.43-39.44q-1.07-2.63-2.22-6.24-1.14-3.6-2.29-7.79-1.07 4.19-2.22 7.83-1.14 3.65-2.21 6.36zm30.09-73.8 46.58 118.57h-17.06q-2.87 0-4.67-1.44-1.8-1.43-2.71-3.56l-8.85-24.19h-49.12l-8.86 24.19q-.65 1.88-2.54 3.44-1.88 1.56-4.67 1.56h-17.22l46.66-118.57zm107.92 34.44h20.25v84.13h-12.38q-4.02 0-5.09-3.69l-1.39-6.72q-5.17 5.24-11.4 8.48t-14.68 3.24q-6.88 0-12.17-2.34-5.29-2.33-8.9-6.6-3.61-4.26-5.45-10.12-1.85-5.87-1.85-12.92V174.5h20.26v53.46q0 7.71 3.56 11.93 3.57 4.23 10.7 4.23 5.25 0 9.84-2.34 4.6-2.34 8.7-6.44zm68.3 85.44q-10.99 0-16.85-6.19t-5.86-17.1v-46.98h-8.61q-1.64 0-2.79-1.07-1.15-1.06-1.15-3.2v-8.03l13.53-2.22 4.27-22.96q.41-1.64 1.55-2.54 1.15-.9 2.96-.9h10.49v26.49h22.47v14.43h-22.47v45.59q0 3.94 1.93 6.15t5.29 2.21q1.88 0 3.16-.45 1.27-.45 2.21-.94t1.68-.94 1.48-.45q.9 0 1.47.45.58.45 1.23 1.35l6.07 9.84q-4.43 3.69-10.17 5.58-5.74 1.88-11.89 1.88m70.19-86.75q9.35 0 17.02 3.03t13.12 8.61 8.4 13.61q2.96 8.04 2.96 17.96 0 10-2.96 18.04-2.95 8.04-8.4 13.69-5.45 5.66-13.12 8.7-7.67 3.03-17.02 3.03-9.43 0-17.13-3.03-7.71-3.04-13.16-8.7-5.46-5.65-8.45-13.69t-2.99-18.04q0-9.92 2.99-17.96 2.99-8.03 8.45-13.61 5.45-5.58 13.16-8.61 7.7-3.03 17.13-3.03m0 71.09q10.5 0 15.54-7.05 5.05-7.05 5.05-20.67 0-13.61-5.05-20.74-5.04-7.14-15.54-7.14-10.66 0-15.78 7.18-5.13 7.17-5.13 20.7t5.13 20.63q5.12 7.09 15.78 7.09"/></svg>