<svg xmlns="http://www.w3.org/2000/svg" width="600" height="400" viewBox="0 0 600 400"><rect width="100%" height="100%" fill="#DDDDDD"/><path fill="#999999" d="M153.995 206.6q.65 0 1.16.51l3.18 3.45q-2.63 3.27-6.49 5.01-3.85 1.74-9.26 1.74-4.82 0-8.68-1.65-3.85-1.65-6.59-4.59-2.73-2.94-4.18-7.02t-1.45-8.91q0-4.89 1.56-8.95 1.56-4.07 4.39-7.01t6.76-4.58q3.94-1.63 8.7-1.63 4.74 0 8.42 1.56 3.67 1.56 6.26 4.08l-2.71 3.75q-.23.36-.61.63-.37.27-1.04.27-.45 0-.92-.25-.48-.26-1.06-.63-.57-.38-1.32-.83t-1.74-.82q-.98-.38-2.29-.63-1.31-.26-3.02-.26-2.91 0-5.32 1.04-2.41 1.03-4.16 3-1.74 1.96-2.69 4.8-.96 2.83-.96 6.46 0 3.66 1.03 6.51t2.81 4.8q1.76 1.95 4.16 2.99 2.4 1.03 5.16 1.03 1.65 0 2.99-.18t2.46-.57 2.13-1.01q1.01-.61 1.99-1.51.3-.27.64-.43.32-.17.69-.17m22.34-21.03q3.42 0 6.23 1.11 2.8 1.11 4.8 3.15 1.99 2.04 3.07 4.98 1.09 2.94 1.09 6.57 0 3.66-1.09 6.6-1.08 2.94-3.07 5.01-2 2.07-4.8 3.18-2.81 1.11-6.23 1.11-3.45 0-6.27-1.11t-4.81-3.18q-2-2.07-3.09-5.01-1.1-2.94-1.1-6.6 0-3.63 1.1-6.57 1.09-2.94 3.09-4.98 1.99-2.04 4.81-3.15t6.27-1.11m0 26.01q3.85 0 5.69-2.58t1.84-7.56-1.84-7.59-5.69-2.61q-3.9 0-5.77 2.63-1.88 2.62-1.88 7.57t1.88 7.55q1.87 2.59 5.77 2.59m28.26 5.25h-7.41v-30.78h4.53q1.44 0 1.89 1.35l.48 2.28q.81-.9 1.7-1.65.88-.75 1.89-1.29t2.16-.86q1.16-.31 2.53-.31 2.91 0 4.79 1.58 1.87 1.57 2.81 4.18.72-1.53 1.79-2.63 1.08-1.09 2.37-1.78t2.75-1.02q1.45-.33 2.92-.33 2.55 0 4.53.78t3.33 2.28 2.06 3.66q.7 2.16.7 4.95v19.59h-7.41v-19.59q0-2.94-1.29-4.43-1.28-1.48-3.78-1.48-1.14 0-2.11.39-.98.39-1.71 1.13-.74.73-1.15 1.84-.43 1.11-.43 2.55v19.59h-7.44v-19.59q0-3.09-1.24-4.5-1.25-1.41-3.64-1.41-1.63 0-3.02.8-1.4.79-2.6 2.17zm43.08-30.78h7.44v30.78h-7.44zm8.46-8.97q0 .96-.39 1.8t-1.03 1.47q-.65.63-1.52 1-.87.38-1.86.38-.96 0-1.81-.38-.86-.37-1.49-1t-1-1.47q-.38-.84-.38-1.8 0-.99.38-1.86.37-.87 1-1.5t1.49-1q.85-.38 1.81-.38.99 0 1.86.38.87.37 1.52 1 .64.63 1.03 1.5t.39 1.86m12.96 10.32.51 2.43q.93-.93 1.97-1.72 1.03-.8 2.19-1.35 1.15-.56 2.47-.88 1.32-.31 2.88-.31 2.52 0 4.47.86 1.95.85 3.26 2.4 1.3 1.54 1.98 3.69.67 2.14.67 4.72v19.59h-7.41v-19.59q0-2.82-1.29-4.36-1.29-1.55-3.93-1.55-1.92 0-3.6.87t-3.18 2.37v22.26h-7.41v-30.78h4.53q1.44 0 1.89 1.35m38.67 13.29q1.38 0 2.4-.38 1.02-.37 1.7-1.03.67-.66 1.02-1.59.34-.93.34-2.04 0-2.28-1.36-3.61-1.37-1.34-4.1-1.34t-4.09 1.34q-1.37 1.33-1.37 3.61 0 1.08.35 2.01.34.93 1.02 1.61.67.67 1.71 1.04 1.03.38 2.38.38m8.37 17.52q0-.9-.54-1.47t-1.47-.88q-.93-.32-2.17-.47-1.25-.15-2.64-.23-1.4-.07-2.88-.13-1.49-.06-2.9-.24-1.23.69-1.99 1.62-.77.93-.77 2.16 0 .81.41 1.51.4.71 1.29 1.22.88.51 2.29.79 1.41.29 3.45.29 2.07 0 3.57-.32 1.5-.31 2.48-.86.97-.56 1.42-1.33.45-.76.45-1.66m-1.47-31.11h8.85v2.76q0 1.32-1.59 1.62l-2.76.51q.63 1.59.63 3.48 0 2.28-.91 4.13-.92 1.84-2.54 3.13t-3.82 1.99q-2.21.71-4.76.71-.9 0-1.74-.09t-1.65-.24q-1.44.87-1.44 1.95 0 .93.86 1.37.85.43 2.26.61t3.21.23q1.8.04 3.69.19t3.69.53q1.8.37 3.21 1.18t2.27 2.21q.85 1.39.85 3.58 0 2.04-1 3.96-1.01 1.92-2.91 3.42-1.91 1.5-4.68 2.41-2.78.92-6.32.92-3.48 0-6.06-.68-2.58-.67-4.29-1.79-1.71-1.13-2.55-2.6t-.84-3.06q0-2.16 1.31-3.61 1.3-1.46 3.58-2.33-1.23-.63-1.95-1.68t-.72-2.76q0-.69.26-1.43.25-.73.75-1.45.49-.72 1.24-1.36.75-.65 1.77-1.16-2.34-1.26-3.67-3.36-1.34-2.1-1.34-4.92 0-2.28.92-4.12.91-1.85 2.55-3.15 1.63-1.31 3.87-2 2.23-.69 4.87-.69 1.98 0 3.72.41 1.74.4 3.18 1.18m12.03 33.75h23.64v4.8h-23.64zm49.96-31.47-1.69 2.67q-.3.48-.63.67-.33.2-.84.2-.53 0-1.15-.3t-1.43-.67q-.81-.38-1.84-.68t-2.45-.3q-2.19 0-3.43.93-1.25.93-1.25 2.43 0 .99.65 1.66.64.68 1.71 1.19 1.06.51 2.41.92 1.35.4 2.75.88 1.39.48 2.75 1.1 1.34.61 2.41 1.55 1.06.95 1.71 2.27.64 1.32.64 3.18 0 2.22-.79 4.1-.8 1.87-2.36 3.23-1.56 1.37-3.85 2.14-2.29.76-5.29.76-1.6 0-3.11-.28-1.52-.29-2.91-.8-1.4-.51-2.58-1.2-1.19-.69-2.09-1.5l1.71-2.82q.33-.51.78-.78t1.14-.27 1.31.39q.61.39 1.42.84t1.91.84q1.09.39 2.78.39 1.31 0 2.26-.31.94-.32 1.56-.83.61-.51.9-1.19.28-.67.28-1.39 0-1.08-.64-1.77-.65-.69-1.71-1.2-1.07-.51-2.43-.91-1.37-.41-2.79-.89-1.43-.48-2.79-1.12-1.37-.65-2.43-1.64-1.07-.99-1.71-2.43-.65-1.44-.65-3.48 0-1.89.75-3.6t2.21-2.98q1.45-1.28 3.63-2.04 2.17-.77 5.02-.77 3.18 0 5.79 1.05t4.36 2.76m19.53-3.81q3.42 0 6.22 1.11 2.81 1.11 4.8 3.15t3.07 4.98q1.09 2.94 1.09 6.57 0 3.66-1.09 6.6-1.08 2.94-3.07 5.01t-4.8 3.18q-2.8 1.11-6.22 1.11-3.46 0-6.27-1.11-2.83-1.11-4.82-3.18t-3.09-5.01q-1.09-2.94-1.09-6.6 0-3.63 1.09-6.57 1.1-2.94 3.09-4.98t4.82-3.15q2.81-1.11 6.27-1.11m0 26.01q3.84 0 5.68-2.58 1.85-2.58 1.85-7.56t-1.85-7.59q-1.84-2.61-5.68-2.61-3.91 0-5.78 2.63-1.88 2.62-1.88 7.57t1.88 7.55q1.87 2.59 5.78 2.59m34.47-26.01q3.41 0 6.22 1.11t4.8 3.15 3.07 4.98q1.09 2.94 1.09 6.57 0 3.66-1.09 6.6-1.08 2.94-3.07 5.01t-4.8 3.18-6.22 1.11q-3.46 0-6.27-1.11-2.83-1.11-4.82-3.18t-3.09-5.01q-1.09-2.94-1.09-6.6 0-3.63 1.09-6.57 1.1-2.94 3.09-4.98t4.82-3.15q2.81-1.11 6.27-1.11m0 26.01q3.84 0 5.68-2.58 1.85-2.58 1.85-7.56t-1.85-7.59q-1.84-2.61-5.68-2.61-3.91 0-5.78 2.63-1.88 2.62-1.88 7.57t1.88 7.55q1.87 2.59 5.78 2.59m27.27-24.18.51 2.43q.93-.93 1.96-1.72 1.04-.8 2.19-1.35 1.16-.56 2.47-.88 1.32-.31 2.88-.31 2.53 0 4.47.86 1.96.85 3.26 2.4 1.3 1.54 1.98 3.69.67 2.14.67 4.72v19.59h-7.41v-19.59q0-2.82-1.29-4.36-1.28-1.55-3.93-1.55-1.91 0-3.6.87-1.68.87-3.18 2.37v22.26h-7.41v-30.78h4.53q1.44 0 1.9 1.35"/></svg>