<svg xmlns="http://www.w3.org/2000/svg" width="600" height="400" viewBox="0 0 600 400"><rect width="100%" height="100%" fill="#FF6347"/><path fill="#FFFFFF" d="M185.45 166.66h-41.41v25.86h32.64v13.35h-32.64v26.38h41.41v13.87h-58.83v-93.27h58.83zm56.82 20.44-3.61 5.74q-.64 1.03-1.35 1.45t-1.81.42q-1.16 0-2.48-.64-1.32-.65-3.07-1.45-1.74-.81-3.96-1.45-2.23-.65-5.26-.65-4.71 0-7.39 2-2.67 2-2.67 5.22 0 2.13 1.38 3.58 1.39 1.46 3.68 2.55 2.29 1.1 5.19 1.97 2.91.87 5.91 1.9 2.99 1.03 5.9 2.36 2.9 1.32 5.19 3.35t3.68 4.87q1.38 2.84 1.38 6.84 0 4.77-1.71 8.8t-5.06 6.97q-3.35 2.93-8.29 4.58-4.93 1.64-11.38 1.64-3.42 0-6.68-.61t-6.25-1.71q-3-1.1-5.55-2.58t-4.48-3.23l3.67-6.06q.71-1.09 1.68-1.68.97-.58 2.45-.58t2.81.84q1.32.84 3.06 1.81t4.1 1.81q2.35.83 5.96.83 2.84 0 4.87-.67 2.03-.68 3.36-1.78 1.32-1.09 1.93-2.55.61-1.45.61-2.99 0-2.33-1.38-3.81-1.39-1.48-3.68-2.58t-5.22-1.97q-2.94-.87-6-1.9-3.07-1.03-6-2.42-2.94-1.39-5.23-3.51-2.29-2.13-3.67-5.23-1.39-3.09-1.39-7.48 0-4.06 1.61-7.74 1.62-3.68 4.74-6.42 3.13-2.74 7.81-4.38 4.67-1.65 10.8-1.65 6.84 0 12.45 2.26t9.35 5.93m34.77 60.05q-8.64 0-13.26-4.87-4.61-4.87-4.61-13.45v-36.95h-6.77q-1.29 0-2.19-.84-.91-.84-.91-2.52v-6.32l10.65-1.74 3.35-18.06q.32-1.29 1.23-2 .9-.71 2.32-.71h8.25v20.83h17.68v11.36H275.1v35.86q0 3.09 1.52 4.84 1.52 1.74 4.16 1.74 1.48 0 2.48-.36 1-.35 1.74-.74.75-.39 1.33-.74.58-.36 1.16-.36.71 0 1.16.36.45.35.97 1.06l4.77 7.74q-3.48 2.9-8 4.39-4.51 1.48-9.35 1.48m60.89-18.12v-11.16q-6.9.32-11.61 1.19t-7.55 2.23q-2.84 1.35-4.06 3.16-1.23 1.8-1.23 3.93 0 4.2 2.48 6 2.49 1.81 6.49 1.81 4.9 0 8.48-1.78 3.58-1.77 7-5.38m-33.67-34.77-2.84-5.09q11.42-10.45 27.48-10.45 5.8 0 10.38 1.9t7.74 5.29 4.81 8.09q1.64 4.71 1.64 10.32v41.8h-7.22q-2.26 0-3.49-.68-1.22-.67-1.93-2.74l-1.42-4.77q-2.52 2.26-4.9 3.97-2.39 1.7-4.97 2.87-2.58 1.16-5.51 1.77-2.94.61-6.49.61-4.19 0-7.74-1.13-3.54-1.13-6.12-3.38-2.58-2.26-4-5.61-1.42-3.36-1.42-7.81 0-2.51.84-5 .84-2.48 2.74-4.74t4.93-4.26 7.45-3.48 10.29-2.42q5.87-.93 13.42-1.13v-3.87q0-6.64-2.84-9.83-2.84-3.2-8.19-3.2-3.87 0-6.42.91-2.55.9-4.48 2.03-1.94 1.13-3.52 2.03t-3.51.9q-1.68 0-2.84-.87t-1.87-2.03m86.23 52.89q-8.64 0-13.25-4.87t-4.61-13.45v-36.95h-6.77q-1.29 0-2.2-.84-.9-.84-.9-2.52v-6.32l10.64-1.74 3.36-18.06q.32-1.29 1.22-2t2.32-.71h8.26v20.83h17.67v11.36h-17.67v35.86q0 3.09 1.51 4.84 1.52 1.74 4.17 1.74 1.48 0 2.48-.36 1-.35 1.74-.74t1.32-.74q.58-.36 1.16-.36.71 0 1.16.36.46.35.97 1.06l4.77 7.74q-3.48 2.9-7.99 4.39-4.52 1.48-9.36 1.48M429 205.42h30.06q0-3.1-.87-5.84t-2.62-4.8q-1.74-2.07-4.41-3.26-2.68-1.19-6.23-1.19-6.9 0-10.87 3.93-3.96 3.94-5.06 11.16m40.64 9.61h-40.96q.39 5.1 1.8 8.81 1.42 3.7 3.75 6.12 2.32 2.42 5.51 3.61 3.19 1.2 7.06 1.2t6.68-.91q2.8-.9 4.9-1.99 2.1-1.1 3.68-2 1.58-.91 3.06-.91 2 0 2.97 1.49l4.58 5.8q-2.65 3.1-5.94 5.19-3.29 2.1-6.87 3.36t-7.28 1.77q-3.71.52-7.2.52-6.9 0-12.83-2.29-5.94-2.29-10.32-6.77-4.39-4.49-6.9-11.1-2.52-6.61-2.52-15.32 0-6.77 2.19-12.74 2.2-5.96 6.29-10.38 4.1-4.42 10-7t13.32-2.58q6.26 0 11.55 2 5.28 2 9.09 5.84t5.97 9.41q2.16 5.58 2.16 12.74 0 3.62-.78 4.87-.77 1.26-2.96 1.26"/></svg>