<svg xmlns="http://www.w3.org/2000/svg" width="600" height="400" viewBox="0 0 600 400"><rect width="100%" height="100%" fill="#FFA500"/><path fill="#FFFFFF" d="m175.295 168.01-3.72 7.04q-.66 1.17-1.41 1.7-.75.52-1.86.52-1.17 0-2.53-.86t-3.25-1.91q-1.88-1.06-4.41-1.92-2.52-.86-5.96-.86-3.11 0-5.44.75t-3.92 2.08q-1.58 1.34-2.35 3.2-.78 1.85-.78 4.07 0 2.84 1.58 4.72 1.58 1.89 4.19 3.22t5.94 2.39q3.33 1.05 6.83 2.25 3.49 1.19 6.82 2.77t5.94 4q2.61 2.41 4.19 5.91 1.58 3.49 1.58 8.49 0 5.44-1.86 10.18-1.86 4.75-5.44 8.27-3.58 3.53-8.74 5.55-5.16 2.03-11.82 2.03-3.83 0-7.55-.75-3.71-.75-7.13-2.14-3.41-1.39-6.41-3.33t-5.33-4.33l4.39-7.16q.55-.77 1.44-1.3t1.89-.53q1.39 0 3 1.14 1.6 1.14 3.82 2.53 2.22 1.38 5.19 2.52t7.14 1.14q6.38 0 9.87-3.03 3.5-3.02 3.5-8.68 0-3.17-1.58-5.16-1.58-2-4.19-3.36t-5.94-2.31q-3.33-.94-6.77-2.05t-6.77-2.66q-3.33-1.56-5.94-4.05-2.61-2.5-4.19-6.25-1.58-3.74-1.58-9.24 0-4.38 1.75-8.55 1.74-4.16 5.07-7.38t8.22-5.16q4.88-1.94 11.21-1.94 7.1 0 13.1 2.22 5.99 2.22 10.21 6.22m23.09 37.68h25.86q0-2.66-.75-5.02t-2.25-4.14q-1.49-1.77-3.8-2.8-2.3-1.03-5.35-1.03-5.94 0-9.36 3.39-3.41 3.38-4.35 9.6m34.96 8.27h-35.24q.33 4.38 1.55 7.57 1.23 3.2 3.22 5.28 2 2.08 4.75 3.11 2.75 1.02 6.08 1.02t5.74-.77q2.41-.78 4.22-1.73 1.8-.94 3.16-1.72 1.36-.77 2.64-.77 1.72 0 2.55 1.27l3.94 5q-2.27 2.66-5.1 4.47-2.84 1.8-5.92 2.88t-6.27 1.53q-3.19.44-6.19.44-5.93 0-11.04-1.97t-8.88-5.83q-3.77-3.85-5.94-9.54-2.16-5.69-2.16-13.18 0-5.83 1.88-10.96 1.89-5.14 5.42-8.94 3.52-3.8 8.6-6.02t11.46-2.22q5.38 0 9.93 1.72t7.83 5.02q3.27 3.3 5.13 8.11 1.86 4.8 1.86 10.96 0 3.1-.66 4.19-.67 1.08-2.56 1.08m25.59-26.75.83 6.44q2.66-5.11 6.33-8.02 3.66-2.92 8.66-2.92 3.94 0 6.32 1.72l-.89 10.27q-.27 1-.8 1.42-.53.41-1.42.41-.83 0-2.46-.28-1.64-.27-3.2-.27-2.27 0-4.05.66-1.77.67-3.19 1.92-1.41 1.25-2.5 3.02-1.08 1.78-2.02 4.05v35.08h-13.71v-56.94h8.05q2.11 0 2.94.75t1.11 2.69m69.82-3.44h10.82l-22.59 56.94h-12.43l-22.59-56.94h11.32q1.56 0 2.58.72 1.03.72 1.36 1.83l10.99 30.41q.89 2.67 1.56 5.22.66 2.55 1.16 5.11.56-2.56 1.22-5.11.67-2.55 1.61-5.22l11.21-30.41q.39-1.11 1.39-1.83t2.39-.72m18.53 0h13.77v56.94h-13.77zm15.66-16.6q0 1.78-.73 3.33-.72 1.56-1.91 2.72-1.19 1.17-2.8 1.86t-3.44.69q-1.78 0-3.36-.69t-2.75-1.86q-1.17-1.16-1.86-2.72-.69-1.55-.69-3.33 0-1.83.69-3.44t1.86-2.77q1.17-1.17 2.75-1.86 1.58-.7 3.36-.7 1.83 0 3.44.7 1.61.69 2.8 1.86 1.19 1.16 1.91 2.77.73 1.61.73 3.44m56.49 23.65-3.6 4.99q-.61.78-1.2 1.22-.58.45-1.69.45-1.05 0-2.05-.64t-2.39-1.45q-1.39-.8-3.3-1.44-1.92-.64-4.75-.64-3.6 0-6.32 1.31-2.72 1.3-4.53 3.74-1.8 2.45-2.69 5.91-.89 3.47-.89 7.86 0 4.55.97 8.1.98 3.55 2.81 5.97 1.83 2.41 4.44 3.66t5.88 1.25 5.3-.81q2.03-.8 3.41-1.77 1.39-.97 2.42-1.78 1.02-.8 2.3-.8 1.67 0 2.5 1.27l3.94 5q-2.28 2.66-4.94 4.47-2.66 1.8-5.52 2.88t-5.89 1.53q-3.02.44-6.02.44-5.27 0-9.93-1.97t-8.16-5.74q-3.5-3.78-5.52-9.24-2.03-5.47-2.03-12.46 0-6.27 1.81-11.63 1.8-5.36 5.3-9.27 3.49-3.91 8.65-6.13 5.17-2.22 11.88-2.22 6.38 0 11.18 2.05 4.8 2.06 8.63 5.89m19.93 14.87h25.86q0-2.66-.75-5.02t-2.25-4.14q-1.49-1.77-3.8-2.8-2.3-1.03-5.35-1.03-5.94 0-9.35 3.39-3.42 3.38-4.36 9.6m34.96 8.27h-35.24q.33 4.38 1.56 7.57 1.22 3.2 3.21 5.28 2 2.08 4.75 3.11 2.75 1.02 6.08 1.02t5.74-.77q2.42-.78 4.22-1.73 1.8-.94 3.16-1.72 1.36-.77 2.64-.77 1.72 0 2.55 1.27l3.94 5q-2.27 2.66-5.1 4.47-2.83 1.8-5.91 2.88t-6.28 1.53q-3.19.44-6.18.44-5.94 0-11.05-1.97-5.1-1.97-8.88-5.83-3.77-3.85-5.94-9.54-2.16-5.69-2.16-13.18 0-5.83 1.89-10.96 1.88-5.14 5.41-8.94 3.52-3.8 8.6-6.02t11.46-2.22q5.38 0 9.93 1.72 4.56 1.72 7.83 5.02t5.13 8.11q1.86 4.8 1.86 10.96 0 3.1-.66 4.19-.67 1.08-2.56 1.08"/></svg>